<?xml version="1.0" encoding="UTF-8" standalone="no"?><svg xmlns="http://www.w3.org/2000/svg" xmlns:xlink="http://www.w3.org/1999/xlink" contentScriptType="application/ecmascript" contentStyleType="text/css" height="264px" preserveAspectRatio="none" style="width:1216px;height:264px;" version="1.1" viewBox="0 0 1216 264" width="1216px" zoomAndPan="magnify"><defs/><g><!--cluster Dependencies--><path d="M25,169 L119,169 A4.5,4.5 0 0 1 122,172 L129,189.4844 L1201,189.4844 A3,3 0 0 1 1204,192.4844 L1204,249 A3,3 0 0 1 1201,252 L25,252 A3,3 0 0 1 22,249 L22,172 A3,3 0 0 1 25,169 " fill="#FFFFFF" style="stroke: #000000; stroke-width: 1.5;"/><line style="stroke: #000000; stroke-width: 1.5;" x1="22" x2="129" y1="189.4844" y2="189.4844"/><text fill="#000000" font-family="Tahoma, sans-serif" font-size="12" font-weight="bold" lengthAdjust="spacingAndGlyphs" textLength="94" x="26" y="183.0059">Dependencies</text><!--entity bcryptjs--><rect fill="#F8F8F8" height="34.4844" rx="3" ry="3" style="stroke: #383838; stroke-width: 1.0;" width="66" x="1003" y="202"/><rect fill="#F8F8F8" height="5" style="stroke: #383838; stroke-width: 1.0;" width="10" x="998" y="207"/><rect fill="#F8F8F8" height="5" style="stroke: #383838; stroke-width: 1.0;" width="10" x="998" y="226.4844"/><text fill="#000000" font-family="Tahoma, sans-serif" font-size="12" lengthAdjust="spacingAndGlyphs" textLength="46" x="1013" y="224.0059">bcryptjs</text><!--entity connect-flash--><rect fill="#F8F8F8" height="34.4844" rx="3" ry="3" style="stroke: #383838; stroke-width: 1.0;" width="100" x="394" y="202"/><rect fill="#F8F8F8" height="5" style="stroke: #383838; stroke-width: 1.0;" width="10" x="389" y="207"/><rect fill="#F8F8F8" height="5" style="stroke: #383838; stroke-width: 1.0;" width="10" x="389" y="226.4844"/><text fill="#000000" font-family="Tahoma, sans-serif" font-size="12" lengthAdjust="spacingAndGlyphs" textLength="80" x="404" y="224.0059">connect-flash</text><!--entity dotenv--><rect fill="#F8F8F8" height="34.4844" rx="3" ry="3" style="stroke: #383838; stroke-width: 1.0;" width="59" x="38.5" y="202"/><rect fill="#F8F8F8" height="5" style="stroke: #383838; stroke-width: 1.0;" width="10" x="33.5" y="207"/><rect fill="#F8F8F8" height="5" style="stroke: #383838; stroke-width: 1.0;" width="10" x="33.5" y="226.4844"/><text fill="#000000" font-family="Tahoma, sans-serif" font-size="12" lengthAdjust="spacingAndGlyphs" textLength="39" x="48.5" y="224.0059">dotenv</text><!--entity express--><rect fill="#F8F8F8" height="34.4844" rx="3" ry="3" style="stroke: #383838; stroke-width: 1.0;" width="65" x="750.5" y="202"/><rect fill="#F8F8F8" height="5" style="stroke: #383838; stroke-width: 1.0;" width="10" x="745.5" y="207"/><rect fill="#F8F8F8" height="5" style="stroke: #383838; stroke-width: 1.0;" width="10" x="745.5" y="226.4844"/><text fill="#000000" font-family="Tahoma, sans-serif" font-size="12" lengthAdjust="spacingAndGlyphs" textLength="45" x="760.5" y="224.0059">express</text><!--entity express-ejs-layouts--><rect fill="#F8F8F8" height="34.4844" rx="3" ry="3" style="stroke: #383838; stroke-width: 1.0;" width="135" x="112.5" y="202"/><rect fill="#F8F8F8" height="5" style="stroke: #383838; stroke-width: 1.0;" width="10" x="107.5" y="207"/><rect fill="#F8F8F8" height="5" style="stroke: #383838; stroke-width: 1.0;" width="10" x="107.5" y="226.4844"/><text fill="#000000" font-family="Tahoma, sans-serif" font-size="12" lengthAdjust="spacingAndGlyphs" textLength="115" x="122.5" y="224.0059">express-ejs-layouts</text><!--entity express-session--><rect fill="#F8F8F8" height="34.4844" rx="3" ry="3" style="stroke: #383838; stroke-width: 1.0;" width="116" x="263" y="202"/><rect fill="#F8F8F8" height="5" style="stroke: #383838; stroke-width: 1.0;" width="10" x="258" y="207"/><rect fill="#F8F8F8" height="5" style="stroke: #383838; stroke-width: 1.0;" width="10" x="258" y="226.4844"/><text fill="#000000" font-family="Tahoma, sans-serif" font-size="12" lengthAdjust="spacingAndGlyphs" textLength="96" x="273" y="224.0059">express-session</text><!--entity mongoose--><rect fill="#F8F8F8" height="34.4844" rx="3" ry="3" style="stroke: #383838; stroke-width: 1.0;" width="83" x="830.5" y="202"/><rect fill="#F8F8F8" height="5" style="stroke: #383838; stroke-width: 1.0;" width="10" x="825.5" y="207"/><rect fill="#F8F8F8" height="5" style="stroke: #383838; stroke-width: 1.0;" width="10" x="825.5" y="226.4844"/><text fill="#000000" font-family="Tahoma, sans-serif" font-size="12" lengthAdjust="spacingAndGlyphs" textLength="63" x="840.5" y="224.0059">mongoose</text><!--entity nexmo--><rect fill="#F8F8F8" height="34.4844" rx="3" ry="3" style="stroke: #383838; stroke-width: 1.0;" width="59" x="928.5" y="202"/><rect fill="#F8F8F8" height="5" style="stroke: #383838; stroke-width: 1.0;" width="10" x="923.5" y="207"/><rect fill="#F8F8F8" height="5" style="stroke: #383838; stroke-width: 1.0;" width="10" x="923.5" y="226.4844"/><text fill="#000000" font-family="Tahoma, sans-serif" font-size="12" lengthAdjust="spacingAndGlyphs" textLength="39" x="938.5" y="224.0059">nexmo</text><!--entity nodemailer--><rect fill="#F8F8F8" height="34.4844" rx="3" ry="3" style="stroke: #383838; stroke-width: 1.0;" width="84" x="509" y="202"/><rect fill="#F8F8F8" height="5" style="stroke: #383838; stroke-width: 1.0;" width="10" x="504" y="207"/><rect fill="#F8F8F8" height="5" style="stroke: #383838; stroke-width: 1.0;" width="10" x="504" y="226.4844"/><text fill="#000000" font-family="Tahoma, sans-serif" font-size="12" lengthAdjust="spacingAndGlyphs" textLength="64" x="519" y="224.0059">nodemailer</text><!--entity passport-local--><rect fill="#F8F8F8" height="34.4844" rx="3" ry="3" style="stroke: #383838; stroke-width: 1.0;" width="104" x="1084" y="202"/><rect fill="#F8F8F8" height="5" style="stroke: #383838; stroke-width: 1.0;" width="10" x="1079" y="207"/><rect fill="#F8F8F8" height="5" style="stroke: #383838; stroke-width: 1.0;" width="10" x="1079" y="226.4844"/><text fill="#000000" font-family="Tahoma, sans-serif" font-size="12" lengthAdjust="spacingAndGlyphs" textLength="84" x="1094" y="224.0059">passport-local</text><!--entity passport/passport--><rect fill="#F8F8F8" height="34.4844" rx="3" ry="3" style="stroke: #383838; stroke-width: 1.0;" width="127" x="608.5" y="202"/><rect fill="#F8F8F8" height="5" style="stroke: #383838; stroke-width: 1.0;" width="10" x="603.5" y="207"/><rect fill="#F8F8F8" height="5" style="stroke: #383838; stroke-width: 1.0;" width="10" x="603.5" y="226.4844"/><text fill="#000000" font-family="Tahoma, sans-serif" font-size="12" lengthAdjust="spacingAndGlyphs" textLength="107" x="618.5" y="224.0059">passport/passport</text><ellipse cx="580.9706" cy="51.742" fill="#F8F8F8" rx="19.9706" ry="13.242" style="stroke: #383838; stroke-width: 0.5;"/><text fill="#000000" font-family="Tahoma, sans-serif" font-size="12" font-weight="bold" lengthAdjust="spacingAndGlyphs" textLength="24" x="568.9706" y="55.4842">app</text><ellipse cx="840.1777" cy="109.242" fill="#F8F8F8" rx="20.6777" ry="13.242" style="stroke: #383838; stroke-width: 0.5;"/><text fill="#000000" font-family="Tahoma, sans-serif" font-size="12" lengthAdjust="spacingAndGlyphs" textLength="25" x="827.6777" y="112.9842">auth</text><ellipse cx="1023.0426" cy="51.7085" fill="#F8F8F8" rx="61.5426" ry="14.7085" style="stroke: #383838; stroke-width: 0.5;"/><text fill="#000000" font-family="Tahoma, sans-serif" font-size="12" lengthAdjust="spacingAndGlyphs" textLength="92" x="977.0426" y="55.4507">config/passport</text><ellipse cx="960.0919" cy="109.242" fill="#F8F8F8" rx="22.0919" ry="13.242" style="stroke: #383838; stroke-width: 0.5;"/><text fill="#000000" font-family="Tahoma, sans-serif" font-size="12" lengthAdjust="spacingAndGlyphs" textLength="27" x="946.5919" y="112.9842">Host</text><ellipse cx="895.8345" cy="51.742" fill="#F8F8F8" rx="26.3345" ry="13.242" style="stroke: #383838; stroke-width: 0.5;"/><text fill="#000000" font-family="Tahoma, sans-serif" font-size="12" lengthAdjust="spacingAndGlyphs" textLength="33" x="879.3345" y="55.4842">hosts</text><ellipse cx="637.8848" cy="51.742" fill="#F8F8F8" rx="21.3848" ry="13.242" style="stroke: #383838; stroke-width: 0.5;"/><text fill="#000000" font-family="Tahoma, sans-serif" font-size="12" lengthAdjust="spacingAndGlyphs" textLength="26" x="624.8848" y="55.4842">keys</text><ellipse cx="718.163" cy="51.742" fill="#F8F8F8" rx="29.163" ry="13.242" style="stroke: #383838; stroke-width: 0.5;"/><text fill="#000000" font-family="Tahoma, sans-serif" font-size="12" lengthAdjust="spacingAndGlyphs" textLength="37" x="699.663" y="55.4842">routes</text><ellipse cx="743.9558" cy="109.242" fill="#F8F8F8" rx="28.4558" ry="13.242" style="stroke: #383838; stroke-width: 0.5;"/><text fill="#000000" font-family="Tahoma, sans-serif" font-size="12" lengthAdjust="spacingAndGlyphs" textLength="36" x="725.9558" y="112.9842">Visitor</text><!--link <b>app</b> to config/passport--><path d="M590.916,39.971 C597.424,33.325 606.552,25.594 616.5,22 C680.455,-1.105 855.192,12.326 922.5,22 C943.559,25.027 966.361,31.449 984.914,37.53 " fill="none" id="&lt;b&gt;app&lt;/b&gt;-config/passport" style="stroke: #000000; stroke-width: 1.0;"/><polygon fill="#000000" points="990.029,39.234,982.7546,32.5945,985.2853,37.6537,980.2261,40.1845,990.029,39.234" style="stroke: #000000; stroke-width: 1.0;"/><!--link <b>app</b> to connect-flash--><path d="M572.011,63.359 C549.416,90.655 489.968,162.47 460.727,197.7934 " fill="none" id="&lt;b&gt;app&lt;/b&gt;-connect-flash" style="stroke: #000000; stroke-width: 1.0;"/><polygon fill="#000000" points="457.315,201.9148,466.1353,197.5327,460.5034,198.0633,459.9728,192.4313,457.315,201.9148" style="stroke: #000000; stroke-width: 1.0;"/><!--link <b>app</b> to dotenv--><path d="M561.52,54.857 C481.755,64.818 180.714,105.512 105,161 C92.4827,170.1735 83.0602,184.9687 76.8569,197.1866 " fill="none" id="&lt;b&gt;app&lt;/b&gt;-dotenv" style="stroke: #000000; stroke-width: 1.0;"/><polygon fill="#000000" points="74.5571,201.8967,82.1006,195.5646,76.7511,197.4038,74.9119,192.0542,74.5571,201.8967" style="stroke: #000000; stroke-width: 1.0;"/><!--link <b>app</b> to express--><path d="M589.733,63.72 C601.878,78.698 625.185,105.276 650,122 C668.584,134.525 725.546,146.944 743,161 C755.219,170.8404 765.329,185.3517 772.328,197.2695 " fill="none" id="&lt;b&gt;app&lt;/b&gt;-express" style="stroke: #000000; stroke-width: 1.0;"/><polygon fill="#000000" points="774.948,201.8614,773.9617,192.0621,772.4699,197.5187,767.0133,196.027,774.948,201.8614" style="stroke: #000000; stroke-width: 1.0;"/><!--link <b>app</b> to express-ejs-layouts--><path d="M562.097,56.448 C510.581,67.689 364.27,102.865 255,161 C235.6,171.3216 215.903,186.5111 201.566,198.615 " fill="none" id="&lt;b&gt;app&lt;/b&gt;-express-ejs-layouts" style="stroke: #000000; stroke-width: 1.0;"/><polygon fill="#000000" points="197.669,201.9405,207.1117,199.1412,201.4724,198.6949,201.9187,193.0557,197.669,201.9405" style="stroke: #000000; stroke-width: 1.0;"/><!--link <b>app</b> to express-session--><path d="M565.421,59.758 C531.479,75.868 448.864,116.704 386,161 C369.989,172.2822 353.411,186.8739 341.004,198.4692 " fill="none" id="&lt;b&gt;app&lt;/b&gt;-express-session" style="stroke: #000000; stroke-width: 1.0;"/><polygon fill="#000000" points="337.293,201.9645,346.5869,198.7052,340.9326,198.5362,341.1016,192.8819,337.293,201.9645" style="stroke: #000000; stroke-width: 1.0;"/><!--link <b>app</b> to hosts--><path d="M590.916,39.971 C597.424,33.325 606.552,25.594 616.5,22 C705.456,-10.137 819.949,23.308 870.302,41.444 " fill="none" id="&lt;b&gt;app&lt;/b&gt;-hosts" style="stroke: #000000; stroke-width: 1.0;"/><polygon fill="#000000" points="875.26,43.255,868.1787,36.4099,870.5635,41.5395,865.4339,43.9243,875.26,43.255" style="stroke: #000000; stroke-width: 1.0;"/><!--link <b>app</b> to keys--><path d="M601.039,51.5 C604.387,51.5 607.735,51.5 611.082,51.5 " fill="none" id="&lt;b&gt;app&lt;/b&gt;-keys" style="stroke: #000000; stroke-width: 1.0;"/><polygon fill="#000000" points="616.343,51.5,607.343,47.5,611.343,51.5,607.343,55.5,616.343,51.5" style="stroke: #000000; stroke-width: 1.0;"/><!--link <b>app</b> to mongoose--><path d="M594.693,61.031 C617.55,75.03 665.197,103.201 708,122 C757.414,143.703 778.27,130.801 823,161 C837.256,170.6249 849.822,185.4498 858.659,197.568 " fill="none" id="&lt;b&gt;app&lt;/b&gt;-mongoose" style="stroke: #000000; stroke-width: 1.0;"/><polygon fill="#000000" points="861.742,201.8955,859.7766,192.2447,858.8404,197.8236,853.2615,196.8874,861.742,201.8955" style="stroke: #000000; stroke-width: 1.0;"/><!--link <b>app</b> to passport/passport--><path d="M580.048,64.611 C579.402,78.934 579.838,103.201 588,122 C601.395,152.852 628.461,180.8856 648.263,198.5861 " fill="none" id="&lt;b&gt;app&lt;/b&gt;-passport/passport" style="stroke: #000000; stroke-width: 1.0;"/><polygon fill="#000000" points="652.12,201.9862,648.0128,193.0346,648.3689,198.6803,642.7233,199.0364,652.12,201.9862" style="stroke: #000000; stroke-width: 1.0;"/><!--link <b>app</b> to routes--><path d="M590.916,39.971 C597.424,33.325 606.552,25.594 616.5,22 C644.098,12.03 676.821,26.025 697.498,37.936 " fill="none" id="&lt;b&gt;app&lt;/b&gt;-routes" style="stroke: #000000; stroke-width: 1.0;"/><polygon fill="#000000" points="701.976,40.592,696.2771,32.5594,697.676,38.0406,692.1948,39.4394,701.976,40.592" style="stroke: #000000; stroke-width: 1.0;"/><!--link config/passport to bcryptjs--><path d="M1024.06,66.044 C1026.32,94.769 1031.6,161.999 1034.32,196.5966 " fill="none" id="config/passport-bcryptjs" style="stroke: #000000; stroke-width: 0.5;"/><polygon fill="#000000" points="1034.73,201.8582,1038.013,192.5726,1034.3385,196.8735,1030.0376,193.199,1034.73,201.8582" style="stroke: #000000; stroke-width: 0.5;"/><!--link config/passport to Host--><path d="M1008.07,65.653 C998.176,74.369 985.234,85.77 975.271,94.547 " fill="none" id="config/passport-Host" style="stroke: #000000; stroke-width: 0.5;"/><polygon fill="#000000" points="971.475,97.891,980.872,94.9419,975.2264,94.5853,975.5829,88.9397,971.475,97.891" style="stroke: #000000; stroke-width: 0.5;"/><!--link config/passport to passport-local--><path d="M1032.25,66.044 C1052.02,95.006 1098.52,163.109 1121.96,197.4442 " fill="none" id="config/passport-passport-local" style="stroke: #000000; stroke-width: 0.5;"/><polygon fill="#000000" points="1124.98,201.8582,1123.2077,192.1701,1122.1602,197.7292,1116.6012,196.6817,1124.98,201.8582" style="stroke: #000000; stroke-width: 0.5;"/><!--link Host to mongoose--><path d="M950.914,121.151 C936.197,139.213 906.935,175.1257 888.475,197.7809 " fill="none" id="Host-mongoose" style="stroke: #000000; stroke-width: 0.5;"/><polygon fill="#000000" points="885.16,201.8496,893.9455,197.3982,888.3179,197.9731,887.743,192.3455,885.16,201.8496" style="stroke: #000000; stroke-width: 0.5;"/><!--link hosts to auth--><path d="M884.936,63.465 C876.157,72.166 863.818,84.394 854.291,93.836 " fill="none" id="hosts-auth" style="stroke: #000000; stroke-width: 0.5;"/><polygon fill="#000000" points="850.661,97.434,859.869,93.9394,854.2122,93.9142,854.2374,88.2574,850.661,97.434" style="stroke: #000000; stroke-width: 0.5;"/><!--link hosts to bcryptjs--><path d="M919.487,57.938 C940.566,63.946 971.022,75.587 990,96 C1016.59,124.598 1028.23,170.049 1033,196.6564 " fill="none" id="hosts-bcryptjs" style="stroke: #000000; stroke-width: 0.5;"/><polygon fill="#000000" points="1033.86,201.716,1036.2875,192.171,1033.0181,196.7874,1028.4017,193.518,1033.86,201.716" style="stroke: #000000; stroke-width: 0.5;"/><!--link hosts to express--><path d="M899.277,64.56 C902.543,79.268 905.687,104.348 895,122 C876.153,153.132 850.176,136.794 823,161 C811.364,171.364 801.306,185.7409 794.186,197.4626 " fill="none" id="hosts-express" style="stroke: #000000; stroke-width: 0.5;"/><polygon fill="#000000" points="791.509,201.9747,799.5413,196.2754,794.0602,197.6746,792.6611,192.1935,791.509,201.9747" style="stroke: #000000; stroke-width: 0.5;"/><!--link hosts to Host--><path d="M908.34,63.201 C918.563,72.066 933.156,84.721 944.226,94.321 " fill="none" id="hosts-Host" style="stroke: #000000; stroke-width: 0.5;"/><polygon fill="#000000" points="948.131,97.707,943.9525,88.7885,944.3536,94.4311,938.711,94.8323,948.131,97.707" style="stroke: #000000; stroke-width: 0.5;"/><!--link hosts to passport/passport--><path d="M894.343,64.6 C891.593,80.061 884.637,106.652 868,122 C825.225,161.461 794.364,133.64 743,161 C724.288,170.9675 705.694,186.1369 692.231,198.3214 " fill="none" id="hosts-passport/passport" style="stroke: #000000; stroke-width: 0.5;"/><polygon fill="#000000" points="688.223,201.9979,697.5592,198.8618,691.9076,198.618,692.1514,192.9664,688.223,201.9979" style="stroke: #000000; stroke-width: 0.5;"/><!--link routes to auth--><path d="M737.331,61.294 C759.662,71.453 796.264,88.104 819.199,98.537 " fill="none" id="routes-auth" style="stroke: #000000; stroke-width: 0.5;"/><polygon fill="#000000" points="823.876,100.665,817.3423,93.2954,819.3254,98.5933,814.0275,100.5764,823.876,100.665" style="stroke: #000000; stroke-width: 0.5;"/><!--link routes to express--><path d="M712.671,64.711 C707.272,78.92 700.676,102.875 708,122 C716.329,143.75 728.507,142.769 743,161 C752.298,172.6963 761.941,186.3847 769.429,197.4155 " fill="none" id="routes-express" style="stroke: #000000; stroke-width: 0.5;"/><polygon fill="#000000" points="772.292,201.657,770.5728,191.9594,769.4949,197.5126,763.9417,196.4347,772.292,201.657" style="stroke: #000000; stroke-width: 0.5;"/><!--link routes to nexmo--><path d="M733.247,62.755 C745.93,71.391 764.368,84.189 780,96 C794.621,107.047 796.034,113.007 812,122 C856.83,147.251 880.649,129.076 921,161 C933.089,170.5641 942.476,185.2132 948.77,197.2655 " fill="none" id="routes-nexmo" style="stroke: #000000; stroke-width: 0.5;"/><polygon fill="#000000" points="951.112,201.9098,950.6308,192.0727,948.8605,197.4454,943.4878,195.6751,951.112,201.9098" style="stroke: #000000; stroke-width: 0.5;"/><!--link routes to nodemailer--><path d="M705.307,63.497 C683.391,82.653 637.314,123.668 601,161 C589.556,172.7653 577.398,186.5918 567.937,197.6805 " fill="none" id="routes-nodemailer" style="stroke: #000000; stroke-width: 0.5;"/><polygon fill="#000000" points="564.58,201.6331,573.4556,197.3642,567.8174,197.8227,567.3589,192.1844,564.58,201.6331" style="stroke: #000000; stroke-width: 0.5;"/><!--link routes to Visitor--><path d="M723.514,64.27 C727.186,72.11 732.068,82.53 736.145,91.233 " fill="none" id="routes-Visitor" style="stroke: #000000; stroke-width: 0.5;"/><polygon fill="#000000" points="738.314,95.863,738.1183,86.0161,736.1929,91.3352,730.8738,89.4098,738.314,95.863" style="stroke: #000000; stroke-width: 0.5;"/><!--link Visitor to mongoose--><path d="M761.638,119.426 C778.344,128.792 803.68,144.158 823,161 C835.616,171.9977 847.889,186.282 856.997,197.7996 " fill="none" id="Visitor-mongoose" style="stroke: #000000; stroke-width: 0.5;"/><polygon fill="#000000" points="860.204,201.9066,857.818,192.3511,857.1269,197.9656,851.5124,197.2745,860.204,201.9066" style="stroke: #000000; stroke-width: 0.5;"/><script type="text/plantuml"><![CDATA[
@startuml

scale max 1920 width
top to bottom direction

skinparam nodesep 15
skinparam ranksep 30
skinparam monochrome true
skinparam shadowing false
skinparam defaultFontName Tahoma
skinparam defaultFontSize 12
skinparam roundCorner 6
skinparam dpi 150
skinparam arrowColor black
skinparam arrowThickness 0.5
skinparam packageTitleAlignment left

skinparam usecase {
  borderThickness 0.5
}

skinparam rectangle {
  borderThickness 0.5
}

skinparam component {
  borderThickness 1
}


(<b>app</b>)
(auth)
(config/passport)
(Host)
(hosts)
(keys)
(routes)
(Visitor)

package "Dependencies" {
  [bcryptjs]
  [connect-flash]
  [dotenv]
  [express]
  [express-ejs-layouts]
  [express-session]
  [mongoose]
  [nexmo]
  [nodemailer]
  [passport-local]
  [passport/passport]
}

(<b>app</b>) -[thickness=1]> (config/passport)
(<b>app</b>) --[thickness=1]> [connect-flash]
(<b>app</b>) --[thickness=1]> [dotenv]
(<b>app</b>) --[thickness=1]> [express]
(<b>app</b>) --[thickness=1]> [express-ejs-layouts]
(<b>app</b>) --[thickness=1]> [express-session]
(<b>app</b>) -[thickness=1]> (hosts)
(<b>app</b>) -[thickness=1]> (keys)
(<b>app</b>) --[thickness=1]> [mongoose]
(<b>app</b>) --[thickness=1]> [passport/passport]
(<b>app</b>) -[thickness=1]> (routes)
(config/passport) ---> [bcryptjs]
(config/passport) --> (Host)
(config/passport) ---> [passport-local]
(Host) ---> [mongoose]
(hosts) --> (auth)
(hosts) ---> [bcryptjs]
(hosts) ---> [express]
(hosts) --> (Host)
(hosts) ---> [passport/passport]
(routes) --> (auth)
(routes) ---> [express]
(routes) ---> [nexmo]
(routes) ---> [nodemailer]
(routes) --> (Visitor)
(Visitor) ---> [mongoose]

@enduml


' View and edit on https://arkit.pro
]]></script></g></svg>